<svg width="600" height="600" viewBox="0 0 600 600" fill="none" xmlns="http://www.w3.org/2000/svg">
<path d="M0 100C0 44.7715 44.7715 0 100 0H500C555.228 0 600 44.7715 600 100V500C600 555.228 555.228 600 500 600H100C44.7715 600 0 555.228 0 500V100Z" fill="#0F0F18"/>
<path d="M171.38 269.353L296.538 103.956C304.031 94.054 319.623 97.0246 322.951 108.988L358.147 235.539C359.077 238.885 361.14 241.804 363.982 243.798L426.327 287.551C433.481 292.572 434.845 302.622 429.287 309.367L284.676 484.878C275.398 496.139 257.132 488.865 258.135 474.308L265.075 373.581C265.407 368.759 263.395 364.072 259.669 360.991L173.782 289.964C167.593 284.845 166.534 275.758 171.38 269.353Z" fill="#CECECE"/>
<path d="M175.306 264.495L283.361 110.065C292.065 97.6245 311.623 104.507 310.618 119.657L303.244 230.829C302.901 235.996 305.248 240.975 309.452 243.999L376.892 292.51C383.185 297.036 384.992 305.612 381.062 312.293L284.048 477.188C275.899 491.039 254.623 484.112 256.191 468.118L267.489 352.85C268.034 347.29 265.443 341.887 260.766 338.831L179.391 285.651C172.3 281.017 170.45 271.436 175.306 264.495Z" fill="white" stroke="white" stroke-opacity="0.2"/>
</svg>
